Coordinates
version=1
nRows=18
nColumns=22
inDegrees=yes

Units are S.I. units (second, meters, Newtons, ...)
If the header above contains a line with 'inDegrees', this indicates whether rotational values are in degrees (yes) or radians (no).

endheader
time	pelvis_tilt	pelvis_list	pelvis_rotation	pelvis_tx	pelvis_ty	pelvis_tz	hip_flexion_r	hip_adduction_r	hip_rotation_r	knee_angle_r	ankle_angle_r	subtalar_angle_r	hip_flexion_l	hip_adduction_l	hip_rotation_l	knee_angle_l	ankle_angle_l	subtalar_angle_l	lumbar_extension	lumbar_bending	lumbar_rotation
      0.89000000	      3.81983078	      2.49103049	     -1.38735251	     -0.79971278	      0.91918064	      0.13509024	     -2.30760694	     -5.73800082	     -2.30696521	    -58.12679008	    -10.28960765	     10.29408023	     14.25615410	      7.62963367	     -4.54322292	    -34.04778045	     23.21414473	    -18.08511281	    -12.66944272	     -2.98584021	     -4.55450638
      0.90000000	      3.88802091	      2.37875383	     -1.04778877	     -0.78963179	      0.92164434	      0.13378468	     -0.24242245	     -5.90514508	     -2.69819265	    -59.72950429	     -8.88691090	      9.52173552	     12.88935163	      7.62581819	     -4.31969926	    -32.99518016	     23.35064936	    -17.77225153	    -12.78552431	     -2.70518878	     -5.17241066
      0.91000000	      3.94177481	      2.22069263	     -0.65011628	     -0.77955530	      0.92416519	      0.13244684	      1.77907892	     -5.96657680	     -3.05713785	    -60.99196937	     -7.40146650	      8.86317218	     11.50383045	      7.55945423	     -4.05005953	    -31.87522744	     23.34926150	    -17.44586216	    -12.86106903	     -2.36662421	     -5.80829221
      0.92000000	      3.98991782	      1.99995475	     -0.20465615	     -0.76947402	      0.92669429	      0.13111910	      3.74478327	     -5.90652582	     -3.39724501	    -61.92000969	     -5.87093180	      7.98880217	     10.10794141	      7.39939130	     -3.76748376	    -30.72491766	     23.36375055	    -17.03550081	    -12.90638686	     -1.95643626	     -6.45492174
      0.93000000	      4.03696406	      1.74221318	      0.27984608	     -0.75938660	      0.92922093	      0.12979840	      5.64587795	     -5.75731775	     -3.71780004	    -62.51493657	     -4.34185932	      7.08397624	      8.69552402	      7.17906223	     -3.45459531	    -29.53254319	     23.31664309	    -16.59447300	    -12.92848231	     -1.50639770	     -7.10323864
      0.94000000	      4.09596969	      1.44284423	      0.79002480	     -0.74925847	      0.93172844	      0.12851542	      7.45532822	     -5.51848739	     -4.02741142	    -62.76948073	     -2.84575602	      6.17878970	      7.25702218	      6.88959838	     -3.12674965	    -28.30804887	     23.25074572	    -16.13096019	    -12.93821041	     -1.01598239	     -7.73114836
      0.95000000	      4.17220488	      1.11259902	      1.31810465	     -0.73909075	      0.93418362	      0.12728309	      9.16197777	     -5.20687764	     -4.33017651	    -62.69025968	     -1.44296568	      5.34317817	      5.79417575	      6.54296295	     -2.78254131	    -27.06071270	     23.15632209	    -15.66483280	    -12.94411616	     -0.49942550	     -8.33546576
      0.96000000	      4.26164961	      0.75057978	      1.84838935	     -0.72890075	      0.93653692	      0.12613569	     10.76747247	     -4.82004135	     -4.61451209	    -62.28664314	     -0.16110950	      4.62012889	      4.32932123	      6.13173652	     -2.46233093	    -25.81540965	     23.03549218	    -15.21639762	    -12.94884264	      0.04121991	     -8.90601924
      0.97000000	      4.37195828	      0.39386339	      2.41426715	     -0.71868330	      0.93875656	      0.12497980	     12.25008898	     -4.43262915	     -4.94532313	    -61.57277249	      0.91188831	      4.15922587	      2.84228153	      5.71358859	     -2.07352101	    -24.54888712	     22.91975807	    -14.80174568	    -12.96478948	      0.57265910	     -9.48097052
      0.98000000	      4.49721134	      0.02674266	      2.97276242	     -0.70844511	      0.94078698	      0.12392539	     13.61954333	     -4.01211763	     -5.27939241	    -60.55995052	      1.85192180	      3.82071292	      1.36823746	      5.24924467	     -1.74605472	    -23.31355008	     22.78802768	    -14.38225594	    -12.99137092	      1.10184489	    -10.02241586
      0.99000000	      4.63832628	     -0.31869256	      3.55221445	     -0.69819111	      0.94258700	      0.12288334	     14.86948318	     -3.62226166	     -5.66245095	    -59.27154274	      2.59213277	      3.71590387	     -0.10548464	      4.78936887	     -1.38446545	    -22.08882009	     22.70884787	    -14.00491047	    -13.03381698	      1.60219930	    -10.55971243
      1.00000000	      4.80299885	     -0.64091227	      4.12284195	     -0.68790513	      0.94413728	      0.12192052	     15.99051008	     -3.25488914	     -6.06758897	    -57.71794638	      3.20738592	      3.71426263	     -1.57577648	      4.32175112	     -1.08505566	    -20.90109700	     22.63126338	    -13.58726787	    -13.10497547	      2.06509299	    -11.07055210
      1.01000000	      4.98676240	     -0.92211679	      4.69571929	     -0.67758595	      0.94540124	      0.12100385	     16.98122846	     -2.93722392	     -6.50780600	    -55.91257878	      3.68859324	      3.80864016	     -3.03389849	      3.86732455	     -0.84508316	    -19.76079036	     22.58327955	    -13.11768291	    -13.20227215	      2.47633064	    -11.57155871
      1.02000000	      5.17969214	     -1.15686212	      5.25910220	     -0.66722090	      0.94633737	      0.12014992	     17.85193786	     -2.68059399	     -6.99189362	    -53.86997133	      4.03451280	      3.97171678	     -4.46818570	      3.43526764	     -0.67012526	    -18.67801197	     22.58014352	    -12.58236145	    -13.31577795	      2.82367867	    -12.05608020
      1.03000000	      5.38056905	     -1.33702477	      5.82704408	     -0.65681451	      0.94692476	      0.11934153	     18.59903572	     -2.49239071	     -7.52879852	    -51.60456795	      4.24956656	      4.18390471	     -5.86903939	      3.03132069	     -0.57841332	    -17.66945499	     22.62989795	    -11.96198892	    -13.44731486	      3.09961962	    -12.54099922
      1.04000000	      5.58300288	     -1.45684635	      6.40038158	     -0.64637255	      0.94714294	      0.11854015	     19.22573589	     -2.37716574	     -8.11358633	    -49.12213665	      4.32408014	      4.43113371	     -7.23100425	      2.67117539	     -0.54923536	    -16.73995266	     22.74528234	    -11.30094526	    -13.59169456	      3.30886738	    -13.04816012
      1.05000000	      5.77469324	     -1.52052037	      6.98205953	     -0.63587985	      0.94696380	      0.11773619	     19.74586306	     -2.33691519	     -8.77686694	    -46.44009678	      4.26211463	      4.73488974	     -8.54351441	      2.35444892	     -0.57394887	    -15.89195242	     22.90686356	    -10.62851879	    -13.73295823	      3.45121652	    -13.54415441
      1.06000000	      5.94805625	     -1.52502828	      7.57619208	     -0.62535549	      0.94637273	      0.11691758	     20.17058944	     -2.36658842	     -9.50679807	    -43.57542364	      4.05685361	      5.08881866	     -9.80026140	      2.09219864	     -0.60222993	    -15.12887636	     23.12738933	    -10.06288776	    -13.86654492	      3.52808206	    -14.06383644
